<?xml version="1.0" encoding="UTF-8"?>
<!DOCTYPE svg PUBLIC "-//W3C//DTD SVG 1.1//EN" "http://www.w3.org/Graphics/SVG/1.1/DTD/svg11.dtd">
<svg xmlns="http://www.w3.org/2000/svg" version="1.1" width="512px" height="512px" style="shape-rendering:geometricPrecision; text-rendering:geometricPrecision; image-rendering:optimizeQuality; fill-rule:evenodd; clip-rule:evenodd" xmlns:xlink="http://www.w3.org/1999/xlink">
<g><path style="opacity:0.974" fill="#0069c0ff" d="M -0.5,276.5 C -0.5,262.5 -0.5,248.5 -0.5,234.5C 9.41441,155.477 49.0811,96.6435 118.5,58C 170.684,32.128 225.017,26.4613 281.5,41C 315.93,50.3708 345.93,67.2041 371.5,91.5C 358.209,100.287 345.042,109.287 332,118.5C 281.584,80.5686 226.084,70.7353 165.5,89C 104.926,111.911 66.4265,154.744 50,217.5C 37.4158,286.084 56.9158,343.584 108.5,390C 165.095,433.847 226.762,442.513 293.5,416C 359.101,382.188 393.768,328.188 397.5,254C 396.896,226.417 390.562,200.25 378.5,175.5C 389.172,164.169 400.838,153.836 413.5,144.5C 418.076,150.642 421.91,157.308 425,164.5C 443.247,207.301 448.247,251.634 440,297.5C 422.053,377.442 375.219,432.942 299.5,464C 219.941,490.573 146.941,478.573 80.5,428C 33.413,388.331 6.413,337.831 -0.5,276.5 Z"/></g>
<g><path style="opacity:0.975" fill="#0069c0ff" d="M 511.5,60.5 C 511.5,63.1667 511.5,65.8333 511.5,68.5C 403.785,123.379 319.952,203.379 260,308.5C 250.178,327.809 241.178,347.475 233,367.5C 229.333,371.5 225.667,371.5 222,367.5C 205.376,324.927 181.542,287.094 150.5,254C 142.035,246.602 133.035,239.935 123.5,234C 112.611,223.941 110.445,212.107 117,198.5C 124.067,187.37 134.234,180.87 147.5,179C 157.478,177.929 166.811,179.929 175.5,185C 188.215,193.377 199.381,203.544 209,215.5C 216.09,224.694 222.923,234.027 229.5,243.5C 265.576,191.257 309.576,146.757 361.5,110C 404.348,81.1599 451.515,63.9932 503,58.5C 506.148,58.2781 508.981,58.9448 511.5,60.5 Z"/></g>
</svg>
